<svg width="1111" height="805" viewBox="0 0 1111 805" fill="none" xmlns="http://www.w3.org/2000/svg">
<g opacity="0.15">
<path d="M416.765 484.516C416.765 488.593 413.46 491.899 409.383 491.899C405.305 491.899 402 488.593 402 484.516C402 480.438 405.305 477.133 409.383 477.133C413.46 477.133 416.765 480.438 416.765 484.516ZM404.723 484.516C404.723 487.089 406.809 489.176 409.383 489.176C411.956 489.176 414.043 487.089 414.043 484.516C414.043 481.942 411.956 479.856 409.383 479.856C406.809 479.856 404.723 481.942 404.723 484.516Z" fill="#248DFA"/>
<path d="M532.78 543.049C532.78 547.127 529.474 550.432 525.397 550.432C521.32 550.432 518.014 547.127 518.014 543.049C518.014 538.972 521.32 535.667 525.397 535.667C529.474 535.667 532.78 538.972 532.78 543.049ZM520.737 543.049C520.737 545.623 522.823 547.709 525.397 547.709C527.97 547.709 530.057 545.623 530.057 543.049C530.057 540.476 527.97 538.39 525.397 538.39C522.823 538.39 520.737 540.476 520.737 543.049Z" fill="#248DFA"/>
<path d="M706.274 543.049C706.274 547.127 702.968 550.432 698.891 550.432C694.814 550.432 691.508 547.127 691.508 543.049C691.508 538.972 694.814 535.667 698.891 535.667C702.968 535.667 706.274 538.972 706.274 543.049ZM694.231 543.049C694.231 545.623 696.317 547.709 698.891 547.709C701.465 547.709 703.551 545.623 703.551 543.049C703.551 540.476 701.465 538.39 698.891 538.39C696.317 538.39 694.231 540.476 694.231 543.049Z" fill="#248DFA"/>
<path d="M648.794 598.947C648.794 603.024 645.488 606.33 641.411 606.33C637.334 606.33 634.028 603.024 634.028 598.947C634.028 594.87 637.334 591.564 641.411 591.564C645.488 591.564 648.794 594.87 648.794 598.947ZM636.751 598.947C636.751 601.521 638.837 603.607 641.411 603.607C643.985 603.607 646.071 601.521 646.071 598.947C646.071 596.373 643.985 594.287 641.411 594.287C638.837 594.287 636.751 596.373 636.751 598.947Z" fill="#248DFA"/>
<path d="M763.754 598.947C763.754 603.024 760.448 606.33 756.371 606.33C752.294 606.33 748.988 603.024 748.988 598.947C748.988 594.87 752.294 591.564 756.371 591.564C760.448 591.564 763.754 594.87 763.754 598.947ZM751.711 598.947C751.711 601.521 753.797 603.607 756.371 603.607C758.945 603.607 761.031 601.521 761.031 598.947C761.031 596.373 758.945 594.287 756.371 594.287C753.797 594.287 751.711 596.373 751.711 598.947Z" fill="#248DFA"/>
<path d="M763.754 657.482C763.754 661.559 760.448 664.864 756.371 664.864C752.294 664.864 748.988 661.559 748.988 657.482C748.988 653.404 752.294 650.099 756.371 650.099C760.448 650.099 763.754 653.404 763.754 657.482ZM751.711 657.482C751.711 660.055 753.797 662.142 756.371 662.142C758.945 662.142 761.031 660.055 761.031 657.482C761.031 654.908 758.945 652.822 756.371 652.822C753.797 652.822 751.711 654.908 751.711 657.482Z" fill="#248DFA"/>
<path d="M707.328 657.482C707.328 661.559 704.023 664.864 699.946 664.864C695.868 664.864 692.563 661.559 692.563 657.482C692.563 653.404 695.868 650.099 699.946 650.099C704.023 650.099 707.328 653.404 707.328 657.482ZM695.286 657.482C695.286 660.055 697.372 662.142 699.946 662.142C702.519 662.142 704.606 660.055 704.606 657.482C704.606 654.908 702.519 652.822 699.946 652.822C697.372 652.822 695.286 654.908 695.286 657.482Z" fill="#248DFA"/>
<path d="M590.787 484.516C590.787 488.593 587.482 491.899 583.404 491.899C579.327 491.899 576.021 488.593 576.021 484.516C576.021 480.438 579.327 477.133 583.404 477.133C587.482 477.133 590.787 480.438 590.787 484.516ZM578.744 484.516C578.744 487.089 580.831 489.176 583.404 489.176C585.978 489.176 588.064 487.089 588.064 484.516C588.064 481.942 585.978 479.856 583.404 479.856C580.831 479.856 578.744 481.942 578.744 484.516Z" fill="#248DFA"/>
<path d="M706.801 484.515C706.801 488.592 703.496 491.898 699.418 491.898C695.341 491.898 692.036 488.592 692.036 484.515C692.036 480.438 695.341 477.132 699.418 477.132C703.496 477.132 706.801 480.438 706.801 484.515ZM694.758 484.515C694.758 487.089 696.845 489.175 699.418 489.175C701.992 489.175 704.078 487.089 704.078 484.515C704.078 481.941 701.992 479.855 699.418 479.855C696.845 479.855 694.758 481.941 694.758 484.515Z" fill="#248DFA"/>
<path d="M763.512 484.515C763.512 488.592 760.206 491.898 756.129 491.898C752.051 491.898 748.746 488.592 748.746 484.515C748.746 480.438 752.051 477.132 756.129 477.132C760.206 477.132 763.512 480.438 763.512 484.515ZM751.469 484.515C751.469 487.089 753.555 489.175 756.129 489.175C758.702 489.175 760.789 487.089 760.789 484.515C760.789 481.941 758.702 479.855 756.129 479.855C753.555 479.855 751.469 481.941 751.469 484.515Z" fill="#248DFA"/>
<path d="M706.642 599.136C706.642 603.214 703.337 606.519 699.26 606.519C695.182 606.519 691.877 603.214 691.877 599.136C691.877 595.059 695.182 591.754 699.26 591.754C703.337 591.754 706.642 595.059 706.642 599.136ZM694.6 599.136C694.6 601.71 696.686 603.796 699.26 603.796C701.833 603.796 703.92 601.71 703.92 599.136C703.92 596.563 701.833 594.476 699.26 594.476C696.686 594.476 694.6 596.563 694.6 599.136Z" fill="#248DFA"/>
<path d="M763.512 543.057C763.512 547.134 760.206 550.44 756.129 550.44C752.051 550.44 748.746 547.134 748.746 543.057C748.746 538.98 752.051 535.674 756.129 535.674C760.206 535.674 763.512 538.98 763.512 543.057ZM751.469 543.057C751.469 545.631 753.555 547.717 756.129 547.717C758.702 547.717 760.789 545.631 760.789 543.057C760.789 540.483 758.702 538.397 756.129 538.397C753.555 538.397 751.469 540.483 751.469 543.057Z" fill="#248DFA"/>
<path d="M646.613 366.919C646.613 370.996 643.308 374.302 639.23 374.302C635.153 374.302 631.848 370.996 631.848 366.919C631.848 362.842 635.153 359.536 639.23 359.536C643.308 359.536 646.613 362.842 646.613 366.919ZM634.57 366.919C634.57 369.493 636.657 371.579 639.23 371.579C641.804 371.579 643.89 369.493 643.89 366.919C643.89 364.345 641.804 362.259 639.23 362.259C636.657 362.259 634.57 364.345 634.57 366.919Z" fill="#248DFA"/>
<path d="M763.754 425.98C763.754 430.058 760.448 433.363 756.371 433.363C752.294 433.363 748.988 430.058 748.988 425.98C748.988 421.903 752.294 418.598 756.371 418.598C760.448 418.598 763.754 421.903 763.754 425.98ZM751.711 425.98C751.711 428.554 753.797 430.64 756.371 430.64C758.945 430.64 761.031 428.554 761.031 425.98C761.031 423.407 758.945 421.32 756.371 421.32C753.797 421.32 751.711 423.407 751.711 425.98Z" fill="#248DFA"/>
<path fill-rule="evenodd" clip-rule="evenodd" d="M523.288 478.31L525.066 477.133L525.222 477.339C525.906 478.242 526.459 479.327 526.883 480.59L526.883 480.591L526.883 480.592C527.299 481.86 527.506 483.166 527.506 484.508C527.506 485.861 527.299 487.172 526.883 488.44L526.883 488.441L526.883 488.442C526.459 489.705 525.906 490.79 525.222 491.693L525.066 491.899L523.288 490.722L523.453 490.469C524.533 488.821 525.079 486.838 525.079 484.508C525.079 482.189 524.533 480.211 523.453 478.562L523.288 478.31Z" fill="#248DFA"/>
<path fill-rule="evenodd" clip-rule="evenodd" d="M581.294 592.741L583.072 591.564L583.228 591.77C583.913 592.673 584.466 593.758 584.889 595.021L584.89 595.022L584.89 595.023C585.305 596.291 585.513 597.597 585.513 598.939C585.513 600.292 585.306 601.603 584.89 602.871L584.89 602.872L584.889 602.873C584.466 604.136 583.913 605.221 583.228 606.124L583.072 606.33L581.294 605.153L581.46 604.9C582.54 603.252 583.086 601.269 583.086 598.939C583.086 596.62 582.54 594.642 581.46 592.993L581.294 592.741Z" fill="#248DFA"/>
<path fill-rule="evenodd" clip-rule="evenodd" d="M643.52 663.688L641.743 664.865L641.587 664.659C640.902 663.756 640.349 662.671 639.926 661.408L639.925 661.407L639.925 661.406C639.51 660.138 639.302 658.832 639.302 657.49C639.302 656.137 639.509 654.826 639.925 653.558L639.925 653.557L639.926 653.556C640.349 652.293 640.902 651.208 641.587 650.305L641.743 650.099L643.52 651.276L643.355 651.528C642.275 653.177 641.729 655.159 641.729 657.49C641.729 659.809 642.275 661.786 643.355 663.435L643.52 663.688Z" fill="#248DFA"/>
<path fill-rule="evenodd" clip-rule="evenodd" d="M753.485 709.829L755.263 708.652L755.419 708.858C756.104 709.761 756.657 710.846 757.08 712.109L757.081 712.11L757.081 712.111C757.496 713.379 757.704 714.685 757.704 716.027C757.704 717.38 757.496 718.691 757.081 719.959L757.081 719.96L757.08 719.961C756.657 721.224 756.104 722.309 755.419 723.212L755.263 723.418L753.485 722.241L753.651 721.989C754.731 720.34 755.277 718.357 755.277 716.027C755.277 713.708 754.731 711.731 753.651 710.082L753.485 709.829Z" fill="#248DFA"/>
<path fill-rule="evenodd" clip-rule="evenodd" d="M585.514 663.688L583.736 664.865L583.58 664.659C582.895 663.756 582.342 662.671 581.919 661.408L581.918 661.407L581.918 661.406C581.503 660.138 581.295 658.832 581.295 657.49C581.295 656.137 581.503 654.826 581.918 653.558L581.918 653.557L581.919 653.556C582.342 652.293 582.895 651.208 583.58 650.305L583.736 650.099L585.514 651.276L585.348 651.528C584.268 653.177 583.722 655.159 583.722 657.49C583.722 659.809 584.268 661.786 585.348 663.435L585.514 663.688Z" fill="#248DFA"/>
<path fill-rule="evenodd" clip-rule="evenodd" d="M464.753 478.31L466.531 477.133L466.687 477.339C467.372 478.242 467.924 479.327 468.348 480.59L468.348 480.591L468.349 480.592C468.764 481.86 468.972 483.166 468.972 484.508C468.972 485.861 468.764 487.172 468.349 488.44L468.348 488.441L468.348 488.442C467.924 489.705 467.372 490.79 466.687 491.693L466.531 491.899L464.753 490.722L464.918 490.469C465.998 488.821 466.544 486.838 466.544 484.508C466.544 482.189 465.999 480.211 464.918 478.562L464.753 478.31Z" fill="#248DFA"/>
<path fill-rule="evenodd" clip-rule="evenodd" d="M639.302 536.843L641.08 535.667L641.236 535.872C641.92 536.775 642.473 537.861 642.897 539.123L642.897 539.124L642.897 539.125C643.313 540.393 643.521 541.699 643.521 543.042C643.521 544.394 643.313 545.705 642.897 546.973L642.897 546.975L642.897 546.976C642.473 548.238 641.92 549.324 641.236 550.227L641.08 550.432L639.302 549.256L639.467 549.003C640.547 547.354 641.093 545.372 641.093 543.042C641.093 540.722 640.547 538.745 639.467 537.096L639.302 536.843Z" fill="#248DFA"/>
<path fill-rule="evenodd" clip-rule="evenodd" d="M584.986 549.255L583.208 550.432L583.052 550.226C582.368 549.323 581.815 548.238 581.391 546.975L581.391 546.974L581.391 546.973C580.975 545.705 580.768 544.399 580.768 543.057C580.768 541.704 580.975 540.393 581.391 539.125L581.391 539.124L581.391 539.123C581.815 537.86 582.368 536.775 583.052 535.872L583.208 535.666L584.986 536.843L584.821 537.095C583.741 538.744 583.195 540.727 583.195 543.057C583.195 545.376 583.741 547.353 584.821 549.002L584.986 549.255Z" fill="#248DFA"/>
<path fill-rule="evenodd" clip-rule="evenodd" d="M585.514 373.125L583.736 374.302L583.58 374.096C582.895 373.193 582.342 372.108 581.919 370.845L581.918 370.844L581.918 370.843C581.503 369.575 581.295 368.269 581.295 366.927C581.295 365.575 581.503 364.263 581.918 362.995L581.918 362.994L581.919 362.993C582.342 361.73 582.895 360.645 583.58 359.742L583.736 359.537L585.514 360.713L585.348 360.966C584.268 362.615 583.722 364.597 583.722 366.927C583.722 369.247 584.268 371.224 585.348 372.873L585.514 373.125Z" fill="#248DFA"/>
<path fill-rule="evenodd" clip-rule="evenodd" d="M643.52 490.721L641.743 491.897L641.587 491.692C640.902 490.789 640.349 489.703 639.926 488.441L639.925 488.44L639.925 488.438C639.51 487.171 639.302 485.865 639.302 484.522C639.302 483.17 639.509 481.859 639.925 480.59L639.925 480.589L639.926 480.588C640.349 479.326 640.902 478.24 641.587 477.337L641.743 477.132L643.52 478.308L643.355 478.561C642.275 480.21 641.729 482.192 641.729 484.522C641.729 486.842 642.275 488.819 643.355 490.468L643.52 490.721Z" fill="#248DFA"/>
<path d="M820.803 252.383C820.803 256.46 817.497 259.765 813.42 259.765C809.342 259.765 806.037 256.46 806.037 252.383C806.037 248.305 809.342 245 813.42 245C817.497 245 820.803 248.305 820.803 252.383ZM808.76 252.383C808.76 254.956 810.846 257.043 813.42 257.043C815.993 257.043 818.08 254.956 818.08 252.383C818.08 249.809 815.993 247.723 813.42 247.723C810.846 247.723 808.76 249.809 808.76 252.383Z" fill="#248DFA"/>
<path d="M878.283 308.28C878.283 312.358 874.977 315.663 870.9 315.663C866.822 315.663 863.517 312.358 863.517 308.28C863.517 304.203 866.822 300.898 870.9 300.898C874.977 300.898 878.283 304.203 878.283 308.28ZM866.24 308.28C866.24 310.854 868.326 312.94 870.9 312.94C873.473 312.94 875.56 310.854 875.56 308.28C875.56 305.707 873.473 303.62 870.9 303.62C868.326 303.62 866.24 305.707 866.24 308.28Z" fill="#248DFA"/>
<path d="M821.857 366.815C821.857 370.892 818.551 374.198 814.474 374.198C810.397 374.198 807.091 370.892 807.091 366.815C807.091 362.737 810.397 359.432 814.474 359.432C818.551 359.432 821.857 362.737 821.857 366.815ZM809.814 366.815C809.814 369.388 811.9 371.475 814.474 371.475C817.048 371.475 819.134 369.388 819.134 366.815C819.134 364.241 817.048 362.155 814.474 362.155C811.9 362.155 809.814 364.241 809.814 366.815Z" fill="#248DFA"/>
<path d="M821.857 425.369C821.857 429.446 818.551 432.752 814.474 432.752C810.397 432.752 807.091 429.446 807.091 425.369C807.091 421.291 810.397 417.986 814.474 417.986C818.551 417.986 821.857 421.291 821.857 425.369ZM809.814 425.369C809.814 427.942 811.9 430.029 814.474 430.029C817.048 430.029 819.134 427.942 819.134 425.369C819.134 422.795 817.048 420.709 814.474 420.709C811.9 420.709 809.814 422.795 809.814 425.369Z" fill="#248DFA"/>
<path d="M821.857 543.057C821.857 547.134 818.551 550.44 814.474 550.44C810.397 550.44 807.091 547.134 807.091 543.057C807.091 538.98 810.397 535.674 814.474 535.674C818.551 535.674 821.857 538.98 821.857 543.057ZM809.814 543.057C809.814 545.631 811.9 547.717 814.474 547.717C817.048 547.717 819.134 545.631 819.134 543.057C819.134 540.483 817.048 538.397 814.474 538.397C811.9 538.397 809.814 540.483 809.814 543.057Z" fill="#248DFA"/>
<path d="M936.49 484.607C936.49 488.684 933.184 491.99 929.107 491.99C925.029 491.99 921.724 488.684 921.724 484.607C921.724 480.53 925.029 477.224 929.107 477.224C933.184 477.224 936.49 480.53 936.49 484.607ZM924.447 484.607C924.447 487.181 926.533 489.267 929.107 489.267C931.68 489.267 933.767 487.181 933.767 484.607C933.767 482.033 931.68 479.947 929.107 479.947C926.533 479.947 924.447 482.033 924.447 484.607Z" fill="#248DFA"/>
<path d="M1051.81 484.607C1051.81 488.684 1048.5 491.99 1044.43 491.99C1040.35 491.99 1037.04 488.684 1037.04 484.607C1037.04 480.53 1040.35 477.224 1044.43 477.224C1048.5 477.224 1051.81 480.53 1051.81 484.607ZM1039.77 484.607C1039.77 487.181 1041.85 489.267 1044.43 489.267C1047 489.267 1049.09 487.181 1049.09 484.607C1049.09 482.033 1047 479.947 1044.43 479.947C1041.85 479.947 1039.77 482.033 1039.77 484.607Z" fill="#248DFA"/>
<path d="M993.359 543.057C993.359 547.134 990.054 550.44 985.976 550.44C981.899 550.44 978.594 547.134 978.594 543.057C978.594 538.98 981.899 535.674 985.976 535.674C990.054 535.674 993.359 538.98 993.359 543.057ZM981.317 543.057C981.317 545.631 983.403 547.717 985.976 547.717C988.55 547.717 990.636 545.631 990.636 543.057C990.636 540.483 988.55 538.397 985.976 538.397C983.403 538.397 981.317 540.483 981.317 543.057Z" fill="#248DFA"/>
<path d="M1110.26 716.035C1110.26 720.112 1106.95 723.418 1102.87 723.418C1098.8 723.418 1095.49 720.112 1095.49 716.035C1095.49 711.958 1098.8 708.652 1102.87 708.652C1106.95 708.652 1110.26 711.958 1110.26 716.035ZM1098.21 716.035C1098.21 718.609 1100.3 720.695 1102.87 720.695C1105.45 720.695 1107.53 718.609 1107.53 716.035C1107.53 713.461 1105.45 711.375 1102.87 711.375C1100.3 711.375 1098.21 713.461 1098.21 716.035Z" fill="#248DFA"/>
<path d="M993.359 599.136C993.359 603.214 990.054 606.519 985.976 606.519C981.899 606.519 978.594 603.214 978.594 599.136C978.594 595.059 981.899 591.754 985.976 591.754C990.054 591.754 993.359 595.059 993.359 599.136ZM981.317 599.136C981.317 601.71 983.403 603.796 985.976 603.796C988.55 603.796 990.636 601.71 990.636 599.136C990.636 596.563 988.55 594.476 985.976 594.476C983.403 594.476 981.317 596.563 981.317 599.136Z" fill="#248DFA"/>
<path d="M1109.47 599.136C1109.47 603.214 1106.16 606.519 1102.09 606.519C1098.01 606.519 1094.7 603.214 1094.7 599.136C1094.7 595.059 1098.01 591.754 1102.09 591.754C1106.16 591.754 1109.47 595.059 1109.47 599.136ZM1097.43 599.136C1097.43 601.71 1099.51 603.796 1102.09 603.796C1104.66 603.796 1106.75 601.71 1106.75 599.136C1106.75 596.563 1104.66 594.476 1102.09 594.476C1099.51 594.476 1097.43 596.563 1097.43 599.136Z" fill="#248DFA"/>
<path d="M1109.47 543.057C1109.47 547.134 1106.16 550.44 1102.09 550.44C1098.01 550.44 1094.7 547.134 1094.7 543.057C1094.7 538.98 1098.01 535.674 1102.09 535.674C1106.16 535.674 1109.47 538.98 1109.47 543.057ZM1097.43 543.057C1097.43 545.631 1099.51 547.717 1102.09 547.717C1104.66 547.717 1106.75 545.631 1106.75 543.057C1106.75 540.483 1104.66 538.397 1102.09 538.397C1099.51 538.397 1097.43 540.483 1097.43 543.057Z" fill="#248DFA"/>
<path d="M1109.47 425.369C1109.47 429.446 1106.16 432.752 1102.09 432.752C1098.01 432.752 1094.7 429.446 1094.7 425.369C1094.7 421.291 1098.01 417.986 1102.09 417.986C1106.16 417.986 1109.47 421.291 1109.47 425.369ZM1097.43 425.369C1097.43 427.942 1099.51 430.029 1102.09 430.029C1104.66 430.029 1106.75 427.942 1106.75 425.369C1106.75 422.795 1104.66 420.709 1102.09 420.709C1099.51 420.709 1097.43 422.795 1097.43 425.369Z" fill="#248DFA"/>
<path d="M993.359 657.586C993.359 661.663 990.054 664.969 985.976 664.969C981.899 664.969 978.594 661.663 978.594 657.586C978.594 653.508 981.899 650.203 985.976 650.203C990.054 650.203 993.359 653.508 993.359 657.586ZM981.317 657.586C981.317 660.159 983.403 662.246 985.976 662.246C988.55 662.246 990.636 660.159 990.636 657.586C990.636 655.012 988.55 652.926 985.976 652.926C983.403 652.926 981.317 655.012 981.317 657.586Z" fill="#248DFA"/>
<path d="M993.359 716.035C993.359 720.112 990.054 723.418 985.976 723.418C981.899 723.418 978.594 720.112 978.594 716.035C978.594 711.958 981.899 708.652 985.976 708.652C990.054 708.652 993.359 711.958 993.359 716.035ZM981.317 716.035C981.317 718.609 983.403 720.695 985.976 720.695C988.55 720.695 990.636 718.609 990.636 716.035C990.636 713.461 988.55 711.375 985.976 711.375C983.403 711.375 981.317 713.461 981.317 716.035Z" fill="#248DFA"/>
<path d="M821.857 599.136C821.857 603.214 818.551 606.519 814.474 606.519C810.397 606.519 807.091 603.214 807.091 599.136C807.091 595.059 810.397 591.754 814.474 591.754C818.551 591.754 821.857 595.059 821.857 599.136ZM809.814 599.136C809.814 601.71 811.9 603.796 814.474 603.796C817.048 603.796 819.134 601.71 819.134 599.136C819.134 596.563 817.048 594.476 814.474 594.476C811.9 594.476 809.814 596.563 809.814 599.136Z" fill="#248DFA"/>
<path d="M878.83 657.586C878.83 661.663 875.525 664.969 871.448 664.969C867.37 664.969 864.065 661.663 864.065 657.586C864.065 653.508 867.37 650.203 871.448 650.203C875.525 650.203 878.83 653.508 878.83 657.586ZM866.788 657.586C866.788 660.159 868.874 662.246 871.448 662.246C874.021 662.246 876.108 660.159 876.108 657.586C876.108 655.012 874.021 652.926 871.448 652.926C868.874 652.926 866.788 655.012 866.788 657.586Z" fill="#248DFA"/>
<path d="M821.857 716.035C821.857 720.112 818.551 723.418 814.474 723.418C810.397 723.418 807.091 720.112 807.091 716.035C807.091 711.958 810.397 708.652 814.474 708.652C818.551 708.652 821.857 711.958 821.857 716.035ZM809.814 716.035C809.814 718.609 811.9 720.695 814.474 720.695C817.048 720.695 819.134 718.609 819.134 716.035C819.134 713.461 817.048 711.375 814.474 711.375C811.9 711.375 809.814 713.461 809.814 716.035Z" fill="#248DFA"/>
<path fill-rule="evenodd" clip-rule="evenodd" d="M816.057 314.487L814.279 315.663L814.123 315.458C813.438 314.555 812.885 313.469 812.462 312.207L812.461 312.206L812.461 312.205C812.046 310.937 811.838 309.631 811.838 308.288C811.838 306.936 812.046 305.625 812.461 304.357L812.461 304.356L812.462 304.355C812.885 303.092 813.438 302.006 814.123 301.104L814.279 300.898L816.057 302.075L815.891 302.327C814.811 303.976 814.265 305.958 814.265 308.288C814.265 310.608 814.811 312.585 815.891 314.234L816.057 314.487Z" fill="#248DFA"/>
<path fill-rule="evenodd" clip-rule="evenodd" d="M811.837 478.401L813.615 477.224L813.771 477.43C814.456 478.333 815.009 479.418 815.432 480.681L815.433 480.682L815.433 480.683C815.848 481.951 816.056 483.257 816.056 484.599C816.056 485.952 815.848 487.263 815.433 488.531L815.433 488.532L815.432 488.533C815.009 489.796 814.456 490.881 813.771 491.784L813.615 491.99L811.837 490.813L812.003 490.561C813.083 488.912 813.629 486.929 813.629 484.599C813.629 482.28 813.083 480.303 812.003 478.654L811.837 478.401Z" fill="#248DFA"/>
<path fill-rule="evenodd" clip-rule="evenodd" d="M868.804 536.851L870.582 535.674L870.738 535.88C871.422 536.783 871.975 537.868 872.399 539.131L872.399 539.132L872.399 539.133C872.815 540.401 873.022 541.707 873.022 543.049C873.022 544.402 872.815 545.713 872.399 546.981L872.399 546.982L872.399 546.983C871.975 548.246 871.422 549.331 870.738 550.234L870.582 550.44L868.804 549.263L868.969 549.01C870.049 547.362 870.595 545.379 870.595 543.049C870.595 540.73 870.049 538.753 868.969 537.104L868.804 536.851Z" fill="#248DFA"/>
<path fill-rule="evenodd" clip-rule="evenodd" d="M926.463 592.93L928.241 591.754L928.397 591.959C929.082 592.862 929.635 593.948 930.058 595.21L930.059 595.211L930.059 595.212C930.474 596.48 930.682 597.786 930.682 599.129C930.682 600.481 930.474 601.792 930.059 603.06L930.059 603.061L930.058 603.062C929.635 604.325 929.082 605.411 928.397 606.313L928.241 606.519L926.463 605.342L926.629 605.09C927.709 603.441 928.255 601.459 928.255 599.129C928.255 596.809 927.709 594.832 926.629 593.183L926.463 592.93Z" fill="#248DFA"/>
<path fill-rule="evenodd" clip-rule="evenodd" d="M873.023 605.343L871.245 606.519L871.089 606.314C870.404 605.411 869.852 604.325 869.428 603.063L869.428 603.062L869.427 603.061C869.012 601.793 868.804 600.487 868.804 599.144C868.804 597.792 869.012 596.481 869.427 595.213L869.428 595.212L869.428 595.21C869.852 593.948 870.404 592.862 871.089 591.959L871.245 591.754L873.023 592.931L872.857 593.183C871.777 594.832 871.232 596.814 871.232 599.144C871.232 601.464 871.777 603.441 872.857 605.09L873.023 605.343Z" fill="#248DFA"/>
<path fill-rule="evenodd" clip-rule="evenodd" d="M930.682 663.792L928.904 664.969L928.748 664.763C928.063 663.86 927.511 662.775 927.087 661.512L927.087 661.511L927.086 661.51C926.671 660.242 926.463 658.936 926.463 657.594C926.463 656.241 926.671 654.93 927.086 653.662L927.087 653.661L927.087 653.66C927.511 652.397 928.063 651.312 928.748 650.409L928.904 650.203L930.682 651.38L930.517 651.633C929.437 653.281 928.891 655.264 928.891 657.594C928.891 659.913 929.436 661.891 930.517 663.539L930.682 663.792Z" fill="#248DFA"/>
<path fill-rule="evenodd" clip-rule="evenodd" d="M873.023 490.814L871.245 491.991L871.089 491.785C870.404 490.882 869.852 489.797 869.428 488.534L869.428 488.533L869.427 488.532C869.012 487.264 868.804 485.958 868.804 484.616C868.804 483.263 869.012 481.952 869.427 480.684L869.428 480.683L869.428 480.682C869.852 479.419 870.404 478.334 871.089 477.431L871.245 477.225L873.023 478.402L872.857 478.655C871.777 480.303 871.232 482.286 871.232 484.616C871.232 486.935 871.777 488.913 872.857 490.561L873.023 490.814Z" fill="#248DFA"/>
<path fill-rule="evenodd" clip-rule="evenodd" d="M930.682 549.263L928.904 550.439L928.748 550.234C928.063 549.331 927.511 548.246 927.087 546.983L927.087 546.982L927.086 546.981C926.671 545.713 926.463 544.407 926.463 543.065C926.463 541.712 926.671 540.401 927.086 539.133L927.087 539.132L927.087 539.131C927.511 537.868 928.063 536.783 928.748 535.88L928.904 535.674L930.682 536.851L930.517 537.103C929.437 538.752 928.891 540.734 928.891 543.065C928.891 545.384 929.436 547.361 930.517 549.01L930.682 549.263Z" fill="#248DFA"/>
<path fill-rule="evenodd" clip-rule="evenodd" d="M983.333 478.401L985.111 477.224L985.267 477.43C985.952 478.333 986.504 479.418 986.928 480.681L986.928 480.682L986.929 480.683C987.344 481.951 987.552 483.257 987.552 484.599C987.552 485.952 987.344 487.263 986.929 488.531L986.928 488.532L986.928 488.533C986.504 489.796 985.952 490.881 985.267 491.784L985.111 491.99L983.333 490.813L983.499 490.561C984.579 488.912 985.124 486.929 985.124 484.599C985.124 482.28 984.579 480.303 983.499 478.654L983.333 478.401Z" fill="#248DFA"/>
<path fill-rule="evenodd" clip-rule="evenodd" d="M1099.44 478.401L1101.22 477.224L1101.38 477.43C1102.06 478.333 1102.61 479.418 1103.04 480.681L1103.04 480.682L1103.04 480.683C1103.45 481.951 1103.66 483.257 1103.66 484.599C1103.66 485.952 1103.45 487.263 1103.04 488.531L1103.04 488.532L1103.04 488.533C1102.61 489.796 1102.06 490.881 1101.38 491.784L1101.22 491.99L1099.44 490.813L1099.61 490.561C1100.69 488.912 1101.23 486.929 1101.23 484.599C1101.23 482.28 1100.69 480.303 1099.61 478.654L1099.44 478.401Z" fill="#248DFA"/>
<path fill-rule="evenodd" clip-rule="evenodd" d="M1041.78 536.851L1043.56 535.674L1043.72 535.88C1044.4 536.783 1044.95 537.868 1045.38 539.131L1045.38 539.132L1045.38 539.133C1045.79 540.401 1046 541.707 1046 543.049C1046 544.402 1045.79 545.713 1045.38 546.981L1045.38 546.982L1045.38 546.983C1044.95 548.246 1044.4 549.331 1043.72 550.234L1043.56 550.44L1041.78 549.263L1041.95 549.01C1043.03 547.362 1043.57 545.379 1043.57 543.049C1043.57 540.73 1043.03 538.753 1041.95 537.104L1041.78 536.851Z" fill="#248DFA"/>
<path fill-rule="evenodd" clip-rule="evenodd" d="M1046 605.343L1044.22 606.519L1044.07 606.314C1043.38 605.411 1042.83 604.325 1042.41 603.063L1042.41 603.062L1042.41 603.061C1041.99 601.793 1041.78 600.487 1041.78 599.144C1041.78 597.792 1041.99 596.481 1042.41 595.213L1042.41 595.212L1042.41 595.21C1042.83 593.948 1043.38 592.862 1044.07 591.959L1044.22 591.754L1046 592.931L1045.84 593.183C1044.76 594.832 1044.21 596.814 1044.21 599.144C1044.21 601.464 1044.76 603.441 1045.84 605.09L1046 605.343Z" fill="#248DFA"/>
<path fill-rule="evenodd" clip-rule="evenodd" d="M1041.78 651.38L1043.56 650.203L1043.72 650.409C1044.4 651.312 1044.95 652.397 1045.38 653.66L1045.38 653.661L1045.38 653.662C1045.79 654.93 1046 656.236 1046 657.578C1046 658.931 1045.79 660.242 1045.38 661.51L1045.38 661.511L1045.38 661.512C1044.95 662.775 1044.4 663.86 1043.72 664.763L1043.56 664.969L1041.78 663.792L1041.95 663.539C1043.03 661.891 1043.57 659.908 1043.57 657.578C1043.57 655.259 1043.03 653.281 1041.95 651.632L1041.78 651.38Z" fill="#248DFA"/>
<path fill-rule="evenodd" clip-rule="evenodd" d="M1104.45 663.792L1102.67 664.969L1102.52 664.763C1101.83 663.86 1101.28 662.775 1100.86 661.512L1100.85 661.511L1100.85 661.51C1100.44 660.242 1100.23 658.936 1100.23 657.594C1100.23 656.241 1100.44 654.93 1100.85 653.662L1100.85 653.661L1100.86 653.66C1101.28 652.397 1101.83 651.312 1102.52 650.409L1102.67 650.203L1104.45 651.38L1104.28 651.633C1103.2 653.281 1102.66 655.264 1102.66 657.594C1102.66 659.913 1103.2 661.891 1104.28 663.539L1104.45 663.792Z" fill="#248DFA"/>
<path fill-rule="evenodd" clip-rule="evenodd" d="M1046 722.241L1044.22 723.418L1044.07 723.212C1043.38 722.309 1042.83 721.224 1042.41 719.961L1042.41 719.96L1042.41 719.959C1041.99 718.691 1041.78 717.385 1041.78 716.043C1041.78 714.69 1041.99 713.379 1042.41 712.111L1042.41 712.11L1042.41 712.109C1042.83 710.846 1043.38 709.761 1044.07 708.858L1044.22 708.653L1046 709.829L1045.84 710.082C1044.76 711.73 1044.21 713.713 1044.21 716.043C1044.21 718.363 1044.76 720.34 1045.84 721.989L1046 722.241Z" fill="#248DFA"/>
<path fill-rule="evenodd" clip-rule="evenodd" d="M1046 432.364L1044.22 433.541L1044.07 433.335C1043.38 432.432 1042.83 431.347 1042.41 430.084L1042.41 430.083L1042.41 430.082C1041.99 428.814 1041.78 427.508 1041.78 426.166C1041.78 424.813 1041.99 423.502 1042.41 422.234L1042.41 422.233L1042.41 422.232C1042.83 420.969 1043.38 419.884 1044.07 418.981L1044.22 418.775L1046 419.952L1045.84 420.205C1044.76 421.853 1044.21 423.836 1044.21 426.166C1044.21 428.485 1044.76 430.463 1045.84 432.111L1046 432.364Z" fill="#248DFA"/>
<path fill-rule="evenodd" clip-rule="evenodd" d="M811.935 651.38L813.713 650.203L813.869 650.409C814.553 651.312 815.106 652.397 815.53 653.66L815.53 653.661L815.53 653.662C815.946 654.93 816.153 656.236 816.153 657.578C816.153 658.931 815.946 660.242 815.53 661.51L815.53 661.511L815.53 661.512C815.106 662.775 814.553 663.86 813.869 664.763L813.713 664.969L811.935 663.792L812.1 663.539C813.18 661.891 813.726 659.908 813.726 657.578C813.726 655.259 813.18 653.281 812.1 651.632L811.935 651.38Z" fill="#248DFA"/>
<path fill-rule="evenodd" clip-rule="evenodd" d="M871.173 709.829L872.951 708.652L873.107 708.858C873.792 709.761 874.345 710.846 874.768 712.109L874.769 712.11L874.769 712.111C875.184 713.379 875.392 714.685 875.392 716.027C875.392 717.38 875.184 718.691 874.769 719.959L874.769 719.96L874.768 719.961C874.345 721.224 873.792 722.309 873.107 723.212L872.951 723.418L871.173 722.241L871.339 721.989C872.419 720.34 872.965 718.357 872.965 716.027C872.965 713.708 872.419 711.731 871.339 710.082L871.173 709.829Z" fill="#248DFA"/>
<path fill-rule="evenodd" clip-rule="evenodd" d="M874.063 258.589L872.285 259.766L872.13 259.56C871.445 258.657 870.892 257.572 870.468 256.309L870.468 256.308L870.468 256.307C870.052 255.039 869.845 253.733 869.845 252.391C869.845 251.038 870.052 249.727 870.468 248.459L870.468 248.458L870.468 248.457C870.892 247.194 871.445 246.109 872.13 245.206L872.285 245L874.063 246.177L873.898 246.429C872.818 248.078 872.272 250.061 872.272 252.391C872.272 254.71 872.818 256.687 873.898 258.336L874.063 258.589Z" fill="#248DFA"/>
</g>
<g opacity="0.15">
<path d="M233.042 260.218C233.042 264.648 229.451 268.239 225.021 268.239C220.591 268.239 217 264.648 217 260.218C217 255.788 220.591 252.197 225.021 252.197C229.451 252.197 233.042 255.788 233.042 260.218ZM219.958 260.218C219.958 263.014 222.225 265.281 225.021 265.281C227.817 265.281 230.084 263.014 230.084 260.218C230.084 257.422 227.817 255.155 225.021 255.155C222.225 255.155 219.958 257.422 219.958 260.218Z" fill="#248DFA"/>
<path d="M296.595 133.113C296.595 137.543 293.004 141.134 288.574 141.134C284.144 141.134 280.553 137.543 280.553 133.113C280.553 128.683 284.144 125.092 288.574 125.092C293.004 125.092 296.595 128.683 296.595 133.113ZM283.511 133.113C283.511 135.909 285.778 138.175 288.574 138.175C291.37 138.175 293.637 135.909 293.637 133.113C293.637 130.317 291.37 128.05 288.574 128.05C285.778 128.05 283.511 130.317 283.511 133.113Z" fill="#248DFA"/>
<path d="M360.147 196.665C360.147 201.095 356.556 204.686 352.126 204.686C347.697 204.686 344.105 201.095 344.105 196.665C344.105 192.235 347.697 188.644 352.126 188.644C356.556 188.644 360.147 192.235 360.147 196.665ZM347.064 196.665C347.064 199.461 349.33 201.728 352.126 201.728C354.922 201.728 357.189 199.461 357.189 196.665C357.189 193.869 354.922 191.602 352.126 191.602C349.33 191.602 347.064 193.869 347.064 196.665Z" fill="#248DFA"/>
<path d="M487.253 133.113C487.253 137.543 483.662 141.134 479.232 141.134C474.802 141.134 471.211 137.543 471.211 133.113C471.211 128.683 474.802 125.092 479.232 125.092C483.662 125.092 487.253 128.683 487.253 133.113ZM474.169 133.113C474.169 135.909 476.436 138.175 479.232 138.175C482.028 138.175 484.295 135.909 484.295 133.113C484.295 130.317 482.028 128.05 479.232 128.05C476.436 128.05 474.169 130.317 474.169 133.113Z" fill="#248DFA"/>
<path d="M360.147 69.5595C360.147 73.9893 356.556 77.5804 352.126 77.5804C347.697 77.5804 344.105 73.9893 344.105 69.5595C344.105 65.1297 347.697 61.5386 352.126 61.5386C356.556 61.5386 360.147 65.1297 360.147 69.5595ZM347.064 69.5595C347.064 72.3555 349.33 74.6222 352.126 74.6222C354.922 74.6222 357.189 72.3555 357.189 69.5595C357.189 66.7634 354.922 64.4967 352.126 64.4967C349.33 64.4967 347.064 66.7634 347.064 69.5595Z" fill="#248DFA"/>
<path d="M614.594 197.006C614.594 201.436 611.003 205.027 606.573 205.027C602.143 205.027 598.552 201.436 598.552 197.006C598.552 192.576 602.143 188.985 606.573 188.985C611.003 188.985 614.594 192.576 614.594 197.006ZM601.51 197.006C601.51 199.802 603.777 202.069 606.573 202.069C609.369 202.069 611.636 199.802 611.636 197.006C611.636 194.21 609.369 191.944 606.573 191.944C603.777 191.944 601.51 194.21 601.51 197.006Z" fill="#248DFA"/>
<path d="M678.147 197.006C678.147 201.436 674.556 205.027 670.126 205.027C665.697 205.027 662.105 201.436 662.105 197.006C662.105 192.576 665.697 188.985 670.126 188.985C674.556 188.985 678.147 192.576 678.147 197.006ZM665.064 197.006C665.064 199.802 667.33 202.069 670.126 202.069C672.922 202.069 675.189 199.802 675.189 197.006C675.189 194.21 672.922 191.944 670.126 191.944C667.33 191.944 665.064 194.21 665.064 197.006Z" fill="#248DFA"/>
<path d="M614.594 133.454C614.594 137.884 611.003 141.475 606.573 141.475C602.143 141.475 598.552 137.884 598.552 133.454C598.552 129.024 602.143 125.433 606.573 125.433C611.003 125.433 614.594 129.024 614.594 133.454ZM601.51 133.454C601.51 136.25 603.777 138.517 606.573 138.517C609.369 138.517 611.636 136.25 611.636 133.454C611.636 130.658 609.369 128.392 606.573 128.392C603.777 128.392 601.51 130.658 601.51 133.454Z" fill="#248DFA"/>
<path d="M551.042 69.901C551.042 74.3308 547.451 77.9219 543.021 77.9219C538.591 77.9219 535 74.3308 535 69.901C535 65.4712 538.591 61.8801 543.021 61.8801C547.451 61.8801 551.042 65.4712 551.042 69.901ZM537.958 69.901C537.958 72.6971 540.225 74.9638 543.021 74.9638C545.817 74.9638 548.084 72.6971 548.084 69.901C548.084 67.1049 545.817 64.8383 543.021 64.8383C540.225 64.8383 537.958 67.1049 537.958 69.901Z" fill="#248DFA"/>
<path d="M614.594 8.02089C614.594 12.4507 611.003 16.0418 606.573 16.0418C602.143 16.0418 598.552 12.4507 598.552 8.02089C598.552 3.59108 602.143 0 606.573 0C611.003 0 614.594 3.59108 614.594 8.02089ZM601.51 8.02089C601.51 10.817 603.777 13.0836 606.573 13.0836C609.369 13.0836 611.636 10.817 611.636 8.02089C611.636 5.22482 609.369 2.95815 606.573 2.95815C603.777 2.95815 601.51 5.22482 601.51 8.02089Z" fill="#248DFA"/>
<path fill-rule="evenodd" clip-rule="evenodd" d="M546.273 140.197L544.341 141.475L544.172 141.252C543.428 140.271 542.827 139.092 542.367 137.72L542.366 137.718C541.915 136.34 541.689 134.921 541.689 133.463C541.689 131.993 541.915 130.569 542.366 129.191L542.367 129.189C542.827 127.817 543.428 126.638 544.172 125.657L544.341 125.434L546.273 126.712L546.093 126.986C544.92 128.778 544.327 130.931 544.327 133.463C544.327 135.983 544.92 138.131 546.093 139.923L546.273 140.197Z" fill="#248DFA"/>
<path fill-rule="evenodd" clip-rule="evenodd" d="M605.242 63.1585L607.173 61.8801L607.343 62.1036C608.087 63.0845 608.687 64.2637 609.148 65.6356L609.148 65.6378C609.599 67.0154 609.825 68.4341 609.825 69.8925C609.825 71.362 609.6 72.7864 609.148 74.1642L609.148 74.1665C608.687 75.5384 608.087 76.7175 607.343 77.6985L607.173 77.9219L605.242 76.6435L605.422 76.3691C606.595 74.5779 607.188 72.4241 607.188 69.8925C607.188 67.3726 606.595 65.2244 605.422 63.433L605.242 63.1585Z" fill="#248DFA"/>
<path fill-rule="evenodd" clip-rule="evenodd" d="M673.378 76.6437L671.447 77.9221L671.277 77.6987C670.533 76.7177 669.933 75.5386 669.473 74.1667L669.472 74.1644C669.021 72.7869 668.795 71.3682 668.795 69.9097C668.795 68.4402 669.021 67.0158 669.472 65.638L669.473 65.6358C669.933 64.2639 670.533 63.0847 671.277 62.1038L671.447 61.8803L673.378 63.1587L673.199 63.4332C672.025 65.2244 671.432 67.3781 671.432 69.9097C671.432 72.4297 672.025 74.5779 673.199 76.3693L673.378 76.6437Z" fill="#248DFA"/>
<path fill-rule="evenodd" clip-rule="evenodd" d="M668.795 1.2784L670.727 -1.15911e-07L670.896 0.223437C671.64 1.20442 672.24 2.38353 672.701 3.75544L672.701 3.7577C673.153 5.13524 673.378 6.55396 673.378 8.01242C673.378 9.48189 673.153 10.9063 672.701 12.2841L672.701 12.2863C672.24 13.6583 671.64 14.8374 670.896 15.8183L670.727 16.0418L668.795 14.7634L668.975 14.489C670.148 12.6978 670.741 10.544 670.741 8.01242C670.741 5.49244 670.148 3.34427 668.975 1.55282L668.795 1.2784Z" fill="#248DFA"/>
<path fill-rule="evenodd" clip-rule="evenodd" d="M668.795 126.712L670.727 125.433L670.896 125.657C671.64 126.638 672.24 127.817 672.701 129.189L672.701 129.191C673.153 130.569 673.378 131.987 673.378 133.446C673.378 134.915 673.153 136.34 672.701 137.717L672.701 137.72C672.24 139.092 671.64 140.271 670.896 141.252L670.727 141.475L668.795 140.197L668.975 139.922C670.148 138.131 670.741 135.977 670.741 133.446C670.741 130.926 670.148 128.778 668.975 126.986L668.795 126.712Z" fill="#248DFA"/>
<path fill-rule="evenodd" clip-rule="evenodd" d="M736.932 140.197L735 141.475L734.83 141.252C734.087 140.271 733.486 139.092 733.026 137.72L733.025 137.718C732.574 136.34 732.348 134.921 732.348 133.463C732.348 131.993 732.574 130.569 733.025 129.191L733.026 129.189C733.486 127.817 734.087 126.638 734.83 125.657L735 125.434L736.932 126.712L736.752 126.986C735.578 128.778 734.985 130.931 734.985 133.463C734.985 135.983 735.578 138.131 736.752 139.923L736.932 140.197Z" fill="#248DFA"/>
<path fill-rule="evenodd" clip-rule="evenodd" d="M732.348 190.264L734.28 188.985L734.449 189.209C735.193 190.19 735.794 191.369 736.254 192.741L736.255 192.743C736.706 194.121 736.932 195.539 736.932 196.998C736.932 198.467 736.706 199.892 736.255 201.269L736.254 201.272C735.794 202.644 735.193 203.823 734.449 204.804L734.28 205.027L732.348 203.749L732.528 203.474C733.701 201.683 734.294 199.529 734.294 196.998C734.294 194.478 733.702 192.33 732.528 190.538L732.348 190.264Z" fill="#248DFA"/>
<path fill-rule="evenodd" clip-rule="evenodd" d="M482.485 76.3022L480.553 77.5806L480.384 77.3571C479.64 76.3761 479.039 75.197 478.579 73.8251L478.578 73.8229C478.127 72.4453 477.901 71.0266 477.901 69.5681C477.901 68.0987 478.127 66.6743 478.578 65.2965L478.579 65.2942C479.039 63.9223 479.64 62.7432 480.384 61.7622L480.553 61.5388L482.485 62.8172L482.305 63.0916C481.132 64.8828 480.539 67.0365 480.539 69.5681C480.539 72.0881 481.131 74.2363 482.305 76.0277L482.485 76.3022Z" fill="#248DFA"/>
<path fill-rule="evenodd" clip-rule="evenodd" d="M412.676 62.817L414.608 61.5386L414.777 61.762C415.521 62.743 416.121 63.9221 416.582 65.294L416.582 65.2963C417.034 66.6738 417.259 68.0925 417.259 69.551C417.259 71.0205 417.034 72.4449 416.582 73.8227L416.582 73.8249C416.121 75.1968 415.521 76.3759 414.777 77.3569L414.608 77.5804L412.676 76.302L412.856 76.0275C414.029 74.2363 414.622 72.0826 414.622 69.551C414.622 67.031 414.029 64.8828 412.856 63.0914L412.676 62.817Z" fill="#248DFA"/>
<path fill-rule="evenodd" clip-rule="evenodd" d="M417.259 139.855L415.328 141.133L415.158 140.91C414.414 139.929 413.814 138.75 413.353 137.378L413.353 137.375C412.901 135.998 412.676 134.579 412.676 133.121C412.676 131.651 412.901 130.227 413.353 128.849L413.353 128.847C413.814 127.475 414.414 126.296 415.158 125.315L415.328 125.091L417.259 126.37L417.079 126.644C415.906 128.435 415.313 130.589 415.313 133.121C415.313 135.641 415.906 137.789 417.079 139.58L417.259 139.855Z" fill="#248DFA"/>
<path fill-rule="evenodd" clip-rule="evenodd" d="M290.154 203.408L288.222 204.686L288.053 204.463C287.309 203.482 286.708 202.303 286.248 200.931L286.247 200.928C285.796 199.551 285.57 198.132 285.57 196.674C285.57 195.204 285.796 193.78 286.247 192.402L286.248 192.4C286.708 191.028 287.309 189.849 288.053 188.868L288.222 188.644L290.154 189.923L289.974 190.197C288.801 191.988 288.208 194.142 288.208 196.674C288.208 199.194 288.8 201.342 289.974 203.133L290.154 203.408Z" fill="#248DFA"/>
<path fill-rule="evenodd" clip-rule="evenodd" d="M412.676 189.922L414.608 188.644L414.777 188.867C415.521 189.848 416.121 191.028 416.582 192.399L416.582 192.402C417.034 193.779 417.259 195.198 417.259 196.656C417.259 198.126 417.034 199.55 416.582 200.928L416.582 200.93C416.121 202.302 415.521 203.481 414.777 204.462L414.608 204.686L412.676 203.407L412.856 203.133C414.029 201.342 414.622 199.188 414.622 196.656C414.622 194.136 414.029 191.988 412.856 190.197L412.676 189.922Z" fill="#248DFA"/>
<path fill-rule="evenodd" clip-rule="evenodd" d="M480.812 203.408L478.88 204.686L478.711 204.463C477.967 203.482 477.367 202.303 476.906 200.931L476.905 200.928C476.454 199.551 476.229 198.132 476.229 196.674C476.229 195.204 476.454 193.78 476.905 192.402L476.906 192.4C477.367 191.028 477.967 189.849 478.711 188.868L478.88 188.644L480.812 189.923L480.632 190.197C479.459 191.988 478.866 194.142 478.866 196.674C478.866 199.194 479.459 201.342 480.632 203.133L480.812 203.408Z" fill="#248DFA"/>
<path fill-rule="evenodd" clip-rule="evenodd" d="M349.123 126.37L351.054 125.092L351.224 125.315C351.968 126.296 352.568 127.475 353.028 128.847L353.029 128.849C353.48 130.227 353.706 131.646 353.706 133.104C353.706 134.574 353.48 135.998 353.029 137.376L353.028 137.378C352.568 138.75 351.968 139.929 351.224 140.91L351.054 141.134L349.123 139.855L349.302 139.581C350.476 137.79 351.069 135.636 351.069 133.104C351.069 130.584 350.476 128.436 349.302 126.645L349.123 126.37Z" fill="#248DFA"/>
<path fill-rule="evenodd" clip-rule="evenodd" d="M222.017 189.922L223.949 188.644L224.118 188.867C224.862 189.848 225.463 191.028 225.923 192.399L225.924 192.402C226.375 193.779 226.601 195.198 226.601 196.656C226.601 198.126 226.375 199.55 225.924 200.928L225.923 200.93C225.463 202.302 224.862 203.481 224.118 204.462L223.949 204.686L222.017 203.407L222.197 203.133C223.37 201.342 223.963 199.188 223.963 196.656C223.963 194.136 223.371 191.988 222.197 190.197L222.017 189.922Z" fill="#248DFA"/>
</g>
<g opacity="0.15">
<path d="M16.0418 796.218C16.0418 800.648 12.4507 804.239 8.02089 804.239C3.59108 804.239 0 800.648 0 796.218C0 791.788 3.59108 788.197 8.02089 788.197C12.4507 788.197 16.0418 791.788 16.0418 796.218ZM2.95815 796.218C2.95815 799.014 5.22482 801.281 8.02089 801.281C10.817 801.281 13.0836 799.014 13.0836 796.218C13.0836 793.422 10.817 791.155 8.02089 791.155C5.22482 791.155 2.95815 793.422 2.95815 796.218Z" fill="#248DFA"/>
<path d="M79.595 669.113C79.595 673.543 76.0039 677.134 71.5741 677.134C67.1443 677.134 63.5532 673.543 63.5532 669.113C63.5532 664.683 67.1443 661.092 71.5741 661.092C76.0039 661.092 79.595 664.683 79.595 669.113ZM66.5114 669.113C66.5114 671.909 68.778 674.175 71.5741 674.175C74.3702 674.175 76.6369 671.909 76.6369 669.113C76.6369 666.317 74.3702 664.05 71.5741 664.05C68.778 664.05 66.5114 666.317 66.5114 669.113Z" fill="#248DFA"/>
<path d="M143.147 732.665C143.147 737.095 139.556 740.686 135.126 740.686C130.697 740.686 127.105 737.095 127.105 732.665C127.105 728.235 130.697 724.644 135.126 724.644C139.556 724.644 143.147 728.235 143.147 732.665ZM130.064 732.665C130.064 735.461 132.33 737.728 135.126 737.728C137.922 737.728 140.189 735.461 140.189 732.665C140.189 729.869 137.922 727.602 135.126 727.602C132.33 727.602 130.064 729.869 130.064 732.665Z" fill="#248DFA"/>
<path d="M270.253 669.113C270.253 673.543 266.662 677.134 262.232 677.134C257.802 677.134 254.211 673.543 254.211 669.113C254.211 664.683 257.802 661.092 262.232 661.092C266.662 661.092 270.253 664.683 270.253 669.113ZM257.169 669.113C257.169 671.909 259.436 674.175 262.232 674.175C265.028 674.175 267.295 671.909 267.295 669.113C267.295 666.317 265.028 664.05 262.232 664.05C259.436 664.05 257.169 666.317 257.169 669.113Z" fill="#248DFA"/>
<path d="M143.147 605.559C143.147 609.989 139.556 613.58 135.126 613.58C130.697 613.58 127.105 609.989 127.105 605.559C127.105 601.13 130.697 597.539 135.126 597.539C139.556 597.539 143.147 601.13 143.147 605.559ZM130.064 605.559C130.064 608.356 132.33 610.622 135.126 610.622C137.922 610.622 140.189 608.356 140.189 605.559C140.189 602.763 137.922 600.497 135.126 600.497C132.33 600.497 130.064 602.763 130.064 605.559Z" fill="#248DFA"/>
<path d="M397.594 733.006C397.594 737.436 394.003 741.027 389.573 741.027C385.143 741.027 381.552 737.436 381.552 733.006C381.552 728.576 385.143 724.985 389.573 724.985C394.003 724.985 397.594 728.576 397.594 733.006ZM384.51 733.006C384.51 735.802 386.777 738.069 389.573 738.069C392.369 738.069 394.636 735.802 394.636 733.006C394.636 730.21 392.369 727.944 389.573 727.944C386.777 727.944 384.51 730.21 384.51 733.006Z" fill="#248DFA"/>
<path d="M461.147 733.006C461.147 737.436 457.556 741.027 453.126 741.027C448.697 741.027 445.105 737.436 445.105 733.006C445.105 728.576 448.697 724.985 453.126 724.985C457.556 724.985 461.147 728.576 461.147 733.006ZM448.064 733.006C448.064 735.802 450.33 738.069 453.126 738.069C455.922 738.069 458.189 735.802 458.189 733.006C458.189 730.21 455.922 727.944 453.126 727.944C450.33 727.944 448.064 730.21 448.064 733.006Z" fill="#248DFA"/>
<path d="M397.594 669.454C397.594 673.884 394.003 677.475 389.573 677.475C385.143 677.475 381.552 673.884 381.552 669.454C381.552 665.024 385.143 661.433 389.573 661.433C394.003 661.433 397.594 665.024 397.594 669.454ZM384.51 669.454C384.51 672.25 386.777 674.517 389.573 674.517C392.369 674.517 394.636 672.25 394.636 669.454C394.636 666.658 392.369 664.392 389.573 664.392C386.777 664.392 384.51 666.658 384.51 669.454Z" fill="#248DFA"/>
<path d="M334.042 605.901C334.042 610.331 330.451 613.922 326.021 613.922C321.591 613.922 318 610.331 318 605.901C318 601.471 321.591 597.88 326.021 597.88C330.451 597.88 334.042 601.471 334.042 605.901ZM320.958 605.901C320.958 608.697 323.225 610.964 326.021 610.964C328.817 610.964 331.084 608.697 331.084 605.901C331.084 603.105 328.817 600.838 326.021 600.838C323.225 600.838 320.958 603.105 320.958 605.901Z" fill="#248DFA"/>
<path d="M397.594 544.021C397.594 548.451 394.003 552.042 389.573 552.042C385.143 552.042 381.552 548.451 381.552 544.021C381.552 539.591 385.143 536 389.573 536C394.003 536 397.594 539.591 397.594 544.021ZM384.51 544.021C384.51 546.817 386.777 549.084 389.573 549.084C392.369 549.084 394.636 546.817 394.636 544.021C394.636 541.225 392.369 538.958 389.573 538.958C386.777 538.958 384.51 541.225 384.51 544.021Z" fill="#248DFA"/>
<path fill-rule="evenodd" clip-rule="evenodd" d="M329.273 676.197L327.341 677.475L327.172 677.252C326.428 676.271 325.827 675.092 325.367 673.72L325.366 673.718C324.915 672.34 324.689 670.921 324.689 669.463C324.689 667.993 324.915 666.569 325.366 665.191L325.367 665.189C325.827 663.817 326.428 662.638 327.172 661.657L327.341 661.434L329.273 662.712L329.093 662.986C327.92 664.778 327.327 666.931 327.327 669.463C327.327 671.983 327.92 674.131 329.093 675.923L329.273 676.197Z" fill="#248DFA"/>
<path fill-rule="evenodd" clip-rule="evenodd" d="M388.242 599.159L390.173 597.88L390.343 598.104C391.087 599.085 391.687 600.264 392.148 601.636L392.148 601.638C392.599 603.015 392.825 604.434 392.825 605.893C392.825 607.362 392.6 608.786 392.148 610.164L392.148 610.166C391.687 611.538 391.087 612.717 390.343 613.698L390.173 613.922L388.242 612.644L388.422 612.369C389.595 610.578 390.188 608.424 390.188 605.893C390.188 603.373 389.595 601.224 388.422 599.433L388.242 599.159Z" fill="#248DFA"/>
<path fill-rule="evenodd" clip-rule="evenodd" d="M456.378 612.644L454.447 613.922L454.277 613.699C453.533 612.718 452.933 611.539 452.473 610.167L452.472 610.164C452.021 608.787 451.795 607.368 451.795 605.91C451.795 604.44 452.021 603.016 452.472 601.638L452.473 601.636C452.933 600.264 453.533 599.085 454.277 598.104L454.447 597.88L456.378 599.159L456.199 599.433C455.025 601.224 454.432 603.378 454.432 605.91C454.432 608.43 455.025 610.578 456.199 612.369L456.378 612.644Z" fill="#248DFA"/>
<path fill-rule="evenodd" clip-rule="evenodd" d="M451.795 537.278L453.727 536L453.896 536.223C454.64 537.204 455.24 538.384 455.701 539.755L455.701 539.758C456.153 541.135 456.378 542.554 456.378 544.012C456.378 545.482 456.153 546.906 455.701 548.284L455.701 548.286C455.24 549.658 454.64 550.837 453.896 551.818L453.727 552.042L451.795 550.763L451.975 550.489C453.148 548.698 453.741 546.544 453.741 544.012C453.741 541.492 453.148 539.344 451.975 537.553L451.795 537.278Z" fill="#248DFA"/>
<path fill-rule="evenodd" clip-rule="evenodd" d="M451.795 662.712L453.727 661.433L453.896 661.657C454.64 662.638 455.24 663.817 455.701 665.189L455.701 665.191C456.153 666.569 456.378 667.987 456.378 669.446C456.378 670.915 456.153 672.34 455.701 673.717L455.701 673.72C455.24 675.092 454.64 676.271 453.896 677.252L453.727 677.475L451.795 676.197L451.975 675.922C453.148 674.131 453.741 671.977 453.741 669.446C453.741 666.926 453.148 664.778 451.975 662.986L451.795 662.712Z" fill="#248DFA"/>
<path fill-rule="evenodd" clip-rule="evenodd" d="M519.932 676.197L518 677.475L517.83 677.252C517.087 676.271 516.486 675.092 516.026 673.72L516.025 673.718C515.574 672.34 515.348 670.921 515.348 669.463C515.348 667.993 515.574 666.569 516.025 665.191L516.026 665.189C516.486 663.817 517.087 662.638 517.83 661.657L518 661.434L519.932 662.712L519.752 662.986C518.578 664.778 517.985 666.931 517.985 669.463C517.985 671.983 518.578 674.131 519.752 675.923L519.932 676.197Z" fill="#248DFA"/>
<path fill-rule="evenodd" clip-rule="evenodd" d="M515.348 726.264L517.28 724.985L517.449 725.209C518.193 726.19 518.794 727.369 519.254 728.741L519.255 728.743C519.706 730.121 519.932 731.539 519.932 732.998C519.932 734.467 519.706 735.892 519.255 737.269L519.254 737.272C518.794 738.644 518.193 739.823 517.449 740.804L517.28 741.027L515.348 739.749L515.528 739.474C516.701 737.683 517.294 735.529 517.294 732.998C517.294 730.478 516.702 728.33 515.528 726.538L515.348 726.264Z" fill="#248DFA"/>
<path fill-rule="evenodd" clip-rule="evenodd" d="M265.485 612.302L263.553 613.581L263.384 613.357C262.64 612.376 262.039 611.197 261.579 609.825L261.578 609.823C261.127 608.445 260.901 607.027 260.901 605.568C260.901 604.099 261.127 602.674 261.578 601.296L261.579 601.294C262.039 599.922 262.64 598.743 263.384 597.762L263.553 597.539L265.485 598.817L265.305 599.092C264.132 600.883 263.539 603.037 263.539 605.568C263.539 608.088 264.131 610.236 265.305 612.028L265.485 612.302Z" fill="#248DFA"/>
<path fill-rule="evenodd" clip-rule="evenodd" d="M195.676 598.817L197.608 597.539L197.777 597.762C198.521 598.743 199.121 599.922 199.582 601.294L199.582 601.296C200.034 602.674 200.259 604.093 200.259 605.551C200.259 607.02 200.034 608.445 199.582 609.823L199.582 609.825C199.121 611.197 198.521 612.376 197.777 613.357L197.608 613.58L195.676 612.302L195.856 612.028C197.029 610.236 197.622 608.083 197.622 605.551C197.622 603.031 197.029 600.883 195.856 599.091L195.676 598.817Z" fill="#248DFA"/>
<path fill-rule="evenodd" clip-rule="evenodd" d="M200.259 675.855L198.328 677.133L198.158 676.91C197.414 675.929 196.814 674.75 196.353 673.378L196.353 673.375C195.901 671.998 195.676 670.579 195.676 669.121C195.676 667.651 195.901 666.227 196.353 664.849L196.353 664.847C196.814 663.475 197.414 662.296 198.158 661.315L198.328 661.091L200.259 662.37L200.079 662.644C198.906 664.435 198.313 666.589 198.313 669.121C198.313 671.641 198.906 673.789 200.079 675.58L200.259 675.855Z" fill="#248DFA"/>
<path fill-rule="evenodd" clip-rule="evenodd" d="M73.1537 739.408L71.222 740.686L71.0526 740.463C70.3087 739.482 69.7083 738.303 69.248 736.931L69.2473 736.928C68.796 735.551 68.5703 734.132 68.5703 732.674C68.5703 731.204 68.7959 729.78 69.2473 728.402L69.248 728.4C69.7084 727.028 70.3087 725.849 71.0526 724.868L71.222 724.644L73.1537 725.923L72.9739 726.197C71.8005 727.988 71.2075 730.142 71.2075 732.674C71.2075 735.194 71.8004 737.342 72.9739 739.133L73.1537 739.408Z" fill="#248DFA"/>
<path fill-rule="evenodd" clip-rule="evenodd" d="M195.676 725.922L197.608 724.644L197.777 724.867C198.521 725.848 199.121 727.028 199.582 728.399L199.582 728.402C200.034 729.779 200.259 731.198 200.259 732.656C200.259 734.126 200.034 735.55 199.582 736.928L199.582 736.93C199.121 738.302 198.521 739.481 197.777 740.462L197.608 740.686L195.676 739.407L195.856 739.133C197.029 737.342 197.622 735.188 197.622 732.656C197.622 730.136 197.029 727.988 195.856 726.197L195.676 725.922Z" fill="#248DFA"/>
<path fill-rule="evenodd" clip-rule="evenodd" d="M263.812 739.408L261.88 740.686L261.711 740.463C260.967 739.482 260.367 738.303 259.906 736.931L259.905 736.928C259.454 735.551 259.229 734.132 259.229 732.674C259.229 731.204 259.454 729.78 259.905 728.402L259.906 728.4C260.367 727.028 260.967 725.849 261.711 724.868L261.88 724.644L263.812 725.923L263.632 726.197C262.459 727.988 261.866 730.142 261.866 732.674C261.866 735.194 262.459 737.342 263.632 739.133L263.812 739.408Z" fill="#248DFA"/>
<path fill-rule="evenodd" clip-rule="evenodd" d="M132.123 662.37L134.054 661.092L134.224 661.315C134.968 662.296 135.568 663.475 136.028 664.847L136.029 664.849C136.48 666.227 136.706 667.646 136.706 669.104C136.706 670.574 136.48 671.998 136.029 673.376L136.028 673.378C135.568 674.75 134.968 675.929 134.224 676.91L134.054 677.134L132.123 675.855L132.302 675.581C133.476 673.79 134.069 671.636 134.069 669.104C134.069 666.584 133.476 664.436 132.302 662.645L132.123 662.37Z" fill="#248DFA"/>
<path fill-rule="evenodd" clip-rule="evenodd" d="M5.01722 725.922L6.94885 724.644L7.11829 724.867C7.86219 725.848 8.46255 727.028 8.92289 728.399L8.92364 728.402C9.37487 729.779 9.60059 731.198 9.60059 732.656C9.60059 734.126 9.37496 735.55 8.92364 736.928L8.92289 736.93C8.46255 738.302 7.86219 739.481 7.11829 740.462L6.94885 740.686L5.01722 739.407L5.19699 739.133C6.37036 737.342 6.96337 735.188 6.96337 732.656C6.96337 730.136 6.37052 727.988 5.19699 726.197L5.01722 725.922Z" fill="#248DFA"/>
</g>
<path d="M1045.88 644.011V677.131C1045.88 679.447 1044.49 681.531 1041.48 683.384C1035.69 686.858 1025.97 686.858 1020.18 683.384C1017.16 681.763 1015.77 679.447 1015.77 677.131V644.011C1015.77 646.327 1017.16 648.412 1020.18 650.265C1026.2 653.739 1035.69 653.739 1041.48 650.265C1044.49 648.412 1045.88 646.327 1045.88 644.011Z" fill="url(#paint0_linear)"/>
<path d="M1041.48 637.758C1047.51 641.232 1047.51 646.79 1041.48 650.033C1035.69 653.507 1025.97 653.507 1020.18 650.033C1014.15 646.559 1014.15 641 1020.18 637.758C1025.97 634.284 1035.46 634.284 1041.48 637.758Z" fill="url(#paint1_radial)"/>
<path d="M621.345 325.786V358.906C621.345 361.222 619.956 363.306 616.945 365.159C611.155 368.633 601.427 368.633 595.637 365.159C592.626 363.538 591.236 361.222 591.236 358.906V325.786C591.236 328.102 592.626 330.187 595.637 332.04C601.659 335.514 611.155 335.514 616.945 332.04C619.724 330.418 621.345 328.102 621.345 325.786Z" fill="url(#paint2_linear)"/>
<path d="M616.714 319.533C622.735 323.007 622.735 328.566 616.714 331.808C610.923 335.282 601.196 335.282 595.406 331.808C589.384 328.334 589.384 322.776 595.406 319.533C601.427 316.291 610.923 316.291 616.714 319.533Z" fill="url(#paint3_radial)"/>
<path d="M786.018 231.987V265.106C786.018 267.423 784.629 269.507 781.618 271.36C775.828 274.834 766.1 274.834 760.31 271.36C757.299 269.739 755.909 267.423 755.909 265.106V231.987C755.909 234.303 757.299 236.388 760.31 238.24C766.332 241.714 775.828 241.714 781.618 238.24C784.397 236.388 786.018 234.071 786.018 231.987Z" fill="url(#paint4_linear)"/>
<path d="M781.618 225.734C787.64 229.208 787.64 234.766 781.618 238.009C775.828 241.483 766.101 241.483 760.31 238.009C754.288 234.535 754.288 228.976 760.31 225.734C766.101 222.26 775.596 222.26 781.618 225.734Z" fill="url(#paint5_radial)"/>
<path d="M588.456 217.859V250.978C588.456 253.294 587.067 255.379 584.056 257.232C578.266 260.706 568.538 260.706 562.748 257.232C559.737 255.61 558.347 253.294 558.347 250.978V217.859C558.347 220.175 559.737 222.259 562.748 224.112C568.77 227.586 578.266 227.586 584.056 224.112C586.835 222.259 588.456 220.175 588.456 217.859Z" fill="url(#paint6_linear)"/>
<path d="M583.824 211.606C589.846 215.08 589.846 220.638 583.824 223.881C578.034 227.355 568.307 227.355 562.516 223.881C556.495 220.407 556.495 214.848 562.516 211.606C568.538 208.131 578.034 208.131 583.824 211.606Z" fill="url(#paint7_radial)"/>
<path d="M965.052 551.833V584.952C965.052 587.268 963.663 589.352 960.652 591.205C954.862 594.679 945.134 594.679 939.344 591.205C936.333 589.584 934.943 587.268 934.943 584.952V551.833C934.943 554.149 936.333 556.233 939.344 558.086C945.366 561.56 954.862 561.56 960.652 558.086C963.431 556.465 965.052 554.149 965.052 551.833Z" fill="url(#paint8_linear)"/>
<path d="M960.42 545.811C966.442 549.285 966.442 554.843 960.42 558.086C954.63 561.56 944.902 561.56 939.112 558.086C933.09 554.612 933.09 549.053 939.112 545.811C945.134 542.337 954.63 542.337 960.42 545.811Z" fill="url(#paint9_radial)"/>
<path d="M929.616 323.007V356.127C929.616 358.443 928.226 360.527 925.215 362.38C919.425 365.854 909.698 365.854 903.907 362.38C900.896 360.759 899.507 358.443 899.507 356.127V323.007C899.507 325.323 900.896 327.408 903.907 329.26C909.929 332.734 919.425 332.734 925.215 329.26C928.226 327.408 929.616 325.092 929.616 323.007Z" fill="url(#paint10_linear)"/>
<path d="M925.216 316.754C931.238 320.228 931.238 325.786 925.216 329.029C919.426 332.503 909.698 332.503 903.908 329.029C897.886 325.555 897.886 319.996 903.908 316.754C909.698 313.28 919.194 313.28 925.216 316.754Z" fill="url(#paint11_radial)"/>
<path d="M1030.6 276.224V309.343C1030.6 311.659 1029.21 313.744 1026.2 315.596C1020.41 319.07 1010.68 319.07 1004.89 315.596C1001.88 313.975 1000.49 311.659 1000.49 309.343V276.224C1000.49 278.54 1001.88 280.624 1004.89 282.477C1010.91 285.951 1020.41 285.951 1026.2 282.477C1029.21 280.624 1030.6 278.54 1030.6 276.224Z" fill="url(#paint12_linear)"/>
<path d="M1026.2 269.97C1032.22 273.444 1032.22 279.003 1026.2 282.245C1020.41 285.719 1010.68 285.719 1004.89 282.245C998.867 278.771 998.867 273.213 1004.89 269.97C1010.68 266.496 1020.41 266.496 1026.2 269.97Z" fill="url(#paint13_radial)"/>
<path d="M801.536 647.022V680.141C801.536 682.457 800.147 684.542 797.136 686.394C791.346 689.868 781.618 689.868 775.828 686.394C772.817 684.773 771.427 682.457 771.427 680.141V647.022C771.427 649.338 772.817 651.422 775.828 653.275C781.85 656.749 791.346 656.749 797.136 653.275C800.147 651.422 801.536 649.106 801.536 647.022Z" fill="url(#paint14_linear)"/>
<path d="M797.136 640.769C803.158 644.243 803.158 649.801 797.136 653.044C791.346 656.518 781.618 656.518 775.828 653.044C769.806 649.57 769.806 644.011 775.828 640.769C781.618 637.295 791.114 637.295 797.136 640.769Z" fill="url(#paint15_radial)"/>
<path d="M748.73 632.662C818.827 632.662 875.651 599.792 875.651 559.244C875.651 518.696 818.827 485.825 748.73 485.825C678.633 485.825 621.808 518.696 621.808 559.244C621.808 599.792 678.633 632.662 748.73 632.662Z" fill="#70ABA5"/>
<path d="M748.731 623.861C818.827 623.861 875.652 590.99 875.652 550.442C875.652 509.895 818.827 477.024 748.731 477.024C678.634 477.024 621.809 509.895 621.809 550.442C621.809 590.99 678.634 623.861 748.731 623.861Z" fill="#CCECEA"/>
<path d="M771.89 518.713L815.201 543.727C817.98 545.348 821.455 545.348 824.002 543.727L846.237 530.988C848.321 529.83 852.953 523.345 846.237 519.408L798.989 498.101L771.89 507.596C767.258 510.144 769.806 517.555 771.89 518.713Z" fill="#518B8B"/>
<path d="M771.659 512.691L814.97 537.705C817.749 539.326 821.223 539.326 823.771 537.705L846.005 524.966C848.09 523.808 848.09 520.798 846.005 519.408L798.525 492.079L771.659 507.596C769.806 508.754 769.806 511.533 771.659 512.691Z" fill="#63AFCA"/>
<path d="M725.569 334.587L730.896 447.61L887.464 543.263C890.475 544.884 897.886 539.789 897.886 536.546V428.85C897.886 425.608 896.265 422.597 893.486 420.976L735.528 329.724C733.212 328.334 725.569 330.882 725.569 334.587Z" fill="#518B8B"/>
<path d="M725.568 334.588V444.832C725.568 448.075 727.19 451.086 730.201 452.707L886.073 542.801C889.084 544.422 892.558 542.338 892.558 539.095V431.399C892.558 428.157 890.937 425.146 888.158 423.525L730.201 332.272C727.884 330.883 725.568 332.272 725.568 334.588Z" fill="#8FC6D9"/>
<path d="M735.992 347.558V443.905L882.137 528.209V431.862L735.992 347.558Z" fill="url(#paint16_radial)"/>
<path d="M788.103 486.057V510.144L819.37 528.209V504.122L788.103 486.057Z" fill="#5AA0B0"/>
<path d="M819.37 528.209L824.697 525.198V507.133L819.37 504.122V528.209Z" fill="#518B8B"/>
<path d="M694.302 510.144L808.949 576.383L756.837 606.491L642.19 540.252L694.302 510.144Z" fill="#518B8B"/>
<path d="M694.303 504.122L808.949 570.361L756.837 600.469L642.191 534.231L694.303 504.122Z" fill="#63AFCA"/>
<path d="M694.997 521.029L686.89 516.397L694.997 511.765L703.103 516.397L694.997 521.029Z" fill="#7AD7EC"/>
<path d="M706.809 527.977L698.702 523.113L706.809 518.481L714.915 523.113L706.809 527.977Z" fill="#7AD7EC"/>
<path d="M718.621 534.693L710.514 530.061L718.621 525.429L726.727 530.061L718.621 534.693Z" fill="#7AD7EC"/>
<path d="M730.433 541.41L722.327 536.778L730.433 532.146L738.308 536.778L730.433 541.41Z" fill="#7AD7EC"/>
<path d="M742.014 548.358L734.139 543.495L742.014 538.863L750.12 543.495L742.014 548.358Z" fill="#7AD7EC"/>
<path d="M753.825 555.075L745.95 550.443L753.825 545.811L761.932 550.443L753.825 555.075Z" fill="#7AD7EC"/>
<path d="M765.637 561.792L757.531 557.159L765.637 552.527L773.744 557.159L765.637 561.792Z" fill="#7AD7EC"/>
<path d="M777.449 568.739L769.343 563.875L777.449 559.243L785.556 563.875L777.449 568.739Z" fill="#7AD7EC"/>
<path d="M789.261 575.456L781.155 570.824L789.261 566.192L797.136 570.824L789.261 575.456Z" fill="#7AD7EC"/>
<path d="M684.343 527.283L676.236 522.65L684.343 518.018L692.218 522.65L684.343 527.283Z" fill="#7AD7EC"/>
<path d="M695.923 533.999L688.048 529.367L695.923 524.735L704.03 529.367L695.923 533.999Z" fill="#7AD7EC"/>
<path d="M707.736 540.947L699.629 536.315L707.736 531.683L715.842 536.315L707.736 540.947Z" fill="#7AD7EC"/>
<path d="M719.548 547.663L711.441 543.031L719.548 538.399L727.654 543.031L719.548 547.663Z" fill="#7AD7EC"/>
<path d="M731.36 554.38L723.253 549.748L731.36 545.115L739.466 549.748L731.36 554.38Z" fill="#7AD7EC"/>
<path d="M743.172 561.328L735.065 556.696L743.172 552.064L751.047 556.696L743.172 561.328Z" fill="#7AD7EC"/>
<path d="M754.752 568.045L746.877 563.413L754.752 558.781L762.859 563.413L754.752 568.045Z" fill="#7AD7EC"/>
<path d="M766.564 574.993L758.458 570.129L766.564 565.497L774.671 570.129L766.564 574.993Z" fill="#7AD7EC"/>
<path d="M778.376 581.709L770.269 577.077L778.376 572.445L786.482 577.077L778.376 581.709Z" fill="#7AD7EC"/>
<path d="M673.458 533.535L665.352 528.903L673.458 524.271L681.565 528.903L673.458 533.535Z" fill="#7AD7EC"/>
<path d="M685.27 540.252L677.163 535.62L685.27 530.988L693.145 535.62L685.27 540.252Z" fill="#7AD7EC"/>
<path d="M696.851 547.2L688.976 542.568L696.851 537.936L704.957 542.568L696.851 547.2Z" fill="#7AD7EC"/>
<path d="M708.662 553.917L700.556 549.284L708.662 544.652L716.769 549.284L708.662 553.917Z" fill="#7AD7EC"/>
<path d="M720.474 560.633L712.367 556.001L720.474 551.369L728.581 556.001L720.474 560.633Z" fill="#7AD7EC"/>
<path d="M732.286 567.582L724.179 562.949L732.286 558.317L740.393 562.949L732.286 567.582Z" fill="#7AD7EC"/>
<path d="M744.098 574.298L735.991 569.666L744.098 565.033L751.973 569.666L744.098 574.298Z" fill="#7AD7EC"/>
<path d="M755.91 581.014L747.803 576.382L755.91 571.75L763.785 576.382L755.91 581.014Z" fill="#7AD7EC"/>
<path d="M767.491 587.963L759.616 583.331L767.491 578.698L775.597 583.331L767.491 587.963Z" fill="#7AD7EC"/>
<path d="M674.615 546.506L654.928 534.925L662.571 530.525L682.49 541.874L674.615 546.506Z" fill="#7AD7EC"/>
<path d="M757.067 593.985L737.149 582.636L745.024 578.004L764.71 589.584L757.067 593.985Z" fill="#7AD7EC"/>
<path d="M733.444 580.319L678.321 548.59L686.195 544.189L741.318 575.919L733.444 580.319Z" fill="#7AD7EC"/>
<path d="M642.19 534.23V540.252L756.837 606.491V600.469L642.19 534.23Z" fill="#518B8B"/>
<path d="M756.835 606.491V600.469L808.947 570.361V576.383L756.835 606.491Z" fill="#406D6A"/>
<path opacity="0.6" d="M628.293 290.351V421.439L763.785 501.111V368.633L628.293 290.351Z" fill="url(#paint17_linear)"/>
<path d="M668.593 365.39L653.538 356.589L653.307 410.09L668.362 418.891L668.593 365.39Z" fill="#CCECEA"/>
<path d="M691.292 391.099L676.237 382.53L676.005 423.292L691.292 432.093V391.099Z" fill="#CCECEA"/>
<path d="M713.989 396.889L698.933 388.32L698.702 436.494L713.989 445.295V396.889Z" fill="#CCECEA"/>
<path d="M736.918 402.216L721.631 393.415L721.399 449.463L736.686 458.264L736.918 402.216Z" fill="#CCECEA"/>
<path d="M683.879 349.41L653.307 347.557L653.77 348.947L683.647 351.031L703.797 383.919L732.748 384.151L734.601 389.709L736.917 383.456L730.201 377.203L732.285 382.761L704.029 382.53L683.879 349.41Z" fill="#6ABCC4"/>
<path opacity="0.6" d="M814.275 323.47V454.559L949.766 534.23V401.753L814.275 323.47Z" fill="url(#paint18_linear)"/>
<path d="M910.624 418.428C895.801 409.859 883.758 416.807 883.758 433.714C883.758 450.853 895.801 471.466 910.624 480.035C925.447 488.604 937.491 481.656 937.491 464.749L910.624 449.232V418.428Z" fill="#CCECEA"/>
<path d="M910.625 418.428V449.232L937.491 464.749C937.491 447.842 925.447 426.998 910.625 418.428Z" fill="#4D88B2"/>
<path d="M849.48 382.761C834.657 374.192 822.614 381.14 822.614 398.047C822.614 415.186 834.426 435.799 849.249 444.368C856.66 448.537 863.145 449 868.009 446.453C872.873 443.673 876.115 437.652 876.115 429.082C876.115 437.652 873.104 443.673 868.009 446.453L849.249 414.028L849.48 382.761Z" fill="#CCECEA"/>
<path d="M849.48 382.761V414.028L868.24 446.453C873.104 443.673 876.347 437.652 876.347 429.082C876.115 411.944 864.303 391.331 849.48 382.761Z" fill="#4D88B2"/>
<defs>
<linearGradient id="paint0_linear" x1="1030.71" y1="643.903" x2="1030.71" y2="685.716" gradientUnits="userSpaceOnUse">
<stop stop-color="#7AD7EC"/>
<stop offset="1" stop-color="#C4EDF6"/>
</linearGradient>
<radialGradient id="paint1_radial" cx="0" cy="0" r="1" gradientUnits="userSpaceOnUse" gradientTransform="translate(1030.75 643.947) scale(12.3533 12.3531)">
<stop stop-color="#7790FC"/>
<stop offset="0.2268" stop-color="#6384E3"/>
<stop offset="0.5215" stop-color="#4F78C9"/>
<stop offset="0.7882" stop-color="#4371BA"/>
<stop offset="1" stop-color="#3E6EB4"/>
</radialGradient>
<linearGradient id="paint2_linear" x1="606.111" y1="325.784" x2="606.111" y2="367.596" gradientUnits="userSpaceOnUse">
<stop stop-color="#7AD7EC"/>
<stop offset="1" stop-color="#C4EDF6"/>
</linearGradient>
<radialGradient id="paint3_radial" cx="0" cy="0" r="1" gradientUnits="userSpaceOnUse" gradientTransform="translate(606.158 325.827) scale(12.3533 12.3531)">
<stop stop-color="#7790FC"/>
<stop offset="0.2268" stop-color="#6384E3"/>
<stop offset="0.5215" stop-color="#4F78C9"/>
<stop offset="0.7882" stop-color="#4371BA"/>
<stop offset="1" stop-color="#3E6EB4"/>
</radialGradient>
<linearGradient id="paint4_linear" x1="770.809" y1="231.824" x2="770.809" y2="273.637" gradientUnits="userSpaceOnUse">
<stop stop-color="#7AD7EC"/>
<stop offset="1" stop-color="#C4EDF6"/>
</linearGradient>
<radialGradient id="paint5_radial" cx="0" cy="0" r="1" gradientUnits="userSpaceOnUse" gradientTransform="translate(770.856 231.868) scale(12.3533 12.3531)">
<stop stop-color="#7790FC"/>
<stop offset="0.2268" stop-color="#6384E3"/>
<stop offset="0.5215" stop-color="#4F78C9"/>
<stop offset="0.7882" stop-color="#4371BA"/>
<stop offset="1" stop-color="#3E6EB4"/>
</radialGradient>
<linearGradient id="paint6_linear" x1="573.232" y1="217.798" x2="573.232" y2="259.61" gradientUnits="userSpaceOnUse">
<stop stop-color="#7AD7EC"/>
<stop offset="1" stop-color="#C4EDF6"/>
</linearGradient>
<radialGradient id="paint7_radial" cx="0" cy="0" r="1" gradientUnits="userSpaceOnUse" gradientTransform="translate(573.279 217.841) scale(12.3533 12.3531)">
<stop stop-color="#7790FC"/>
<stop offset="0.2268" stop-color="#6384E3"/>
<stop offset="0.5215" stop-color="#4F78C9"/>
<stop offset="0.7882" stop-color="#4371BA"/>
<stop offset="1" stop-color="#3E6EB4"/>
</radialGradient>
<linearGradient id="paint8_linear" x1="949.83" y1="551.847" x2="949.83" y2="593.659" gradientUnits="userSpaceOnUse">
<stop stop-color="#7AD7EC"/>
<stop offset="1" stop-color="#C4EDF6"/>
</linearGradient>
<radialGradient id="paint9_radial" cx="0" cy="0" r="1" gradientUnits="userSpaceOnUse" gradientTransform="translate(949.877 551.89) scale(12.3533 12.3531)">
<stop stop-color="#7790FC"/>
<stop offset="0.2268" stop-color="#6384E3"/>
<stop offset="0.5215" stop-color="#4F78C9"/>
<stop offset="0.7882" stop-color="#4371BA"/>
<stop offset="1" stop-color="#3E6EB4"/>
</radialGradient>
<linearGradient id="paint10_linear" x1="914.447" y1="322.865" x2="914.447" y2="364.677" gradientUnits="userSpaceOnUse">
<stop stop-color="#7AD7EC"/>
<stop offset="1" stop-color="#C4EDF6"/>
</linearGradient>
<radialGradient id="paint11_radial" cx="0" cy="0" r="1" gradientUnits="userSpaceOnUse" gradientTransform="translate(914.495 322.908) scale(12.3533 12.3531)">
<stop stop-color="#7790FC"/>
<stop offset="0.2268" stop-color="#6384E3"/>
<stop offset="0.5215" stop-color="#4F78C9"/>
<stop offset="0.7882" stop-color="#4371BA"/>
<stop offset="1" stop-color="#3E6EB4"/>
</radialGradient>
<linearGradient id="paint12_linear" x1="1015.54" y1="286.979" x2="1015.54" y2="321.057" gradientUnits="userSpaceOnUse">
<stop stop-color="#7AD7EC"/>
<stop offset="1" stop-color="#C4EDF6"/>
</linearGradient>
<radialGradient id="paint13_radial" cx="0" cy="0" r="1" gradientUnits="userSpaceOnUse" gradientTransform="translate(1015.59 276.212) scale(12.3533 12.3531)">
<stop stop-color="#7790FC"/>
<stop offset="0.2268" stop-color="#6384E3"/>
<stop offset="0.5215" stop-color="#4F78C9"/>
<stop offset="0.7882" stop-color="#4371BA"/>
<stop offset="1" stop-color="#3E6EB4"/>
</radialGradient>
<linearGradient id="paint14_linear" x1="786.408" y1="646.822" x2="786.408" y2="688.634" gradientUnits="userSpaceOnUse">
<stop stop-color="#7AD7EC"/>
<stop offset="1" stop-color="#C4EDF6"/>
</linearGradient>
<radialGradient id="paint15_radial" cx="0" cy="0" r="1" gradientUnits="userSpaceOnUse" gradientTransform="translate(786.455 646.865) scale(12.3533 12.3531)">
<stop stop-color="#7790FC"/>
<stop offset="0.2268" stop-color="#6384E3"/>
<stop offset="0.5215" stop-color="#4F78C9"/>
<stop offset="0.7882" stop-color="#4371BA"/>
<stop offset="1" stop-color="#3E6EB4"/>
</radialGradient>
<radialGradient id="paint16_radial" cx="0" cy="0" r="1" gradientUnits="userSpaceOnUse" gradientTransform="translate(845.674 469.783) scale(82.1599 82.1584)">
<stop stop-color="#6295D9"/>
<stop offset="0.111" stop-color="#5584C7"/>
<stop offset="0.3681" stop-color="#3A62A4"/>
<stop offset="0.6096" stop-color="#274A8A"/>
<stop offset="0.8272" stop-color="#1B3B7A"/>
<stop offset="1" stop-color="#173675"/>
</radialGradient>
<linearGradient id="paint17_linear" x1="628.18" y1="395.741" x2="763.819" y2="395.741" gradientUnits="userSpaceOnUse">
<stop offset="2.5e-07" stop-color="#2E5199"/>
<stop offset="1" stop-color="#AAFFFF"/>
</linearGradient>
<linearGradient id="paint18_linear" x1="814.238" y1="428.875" x2="949.877" y2="428.875" gradientUnits="userSpaceOnUse">
<stop stop-color="#AAFFFF"/>
<stop offset="1" stop-color="#2E5199"/>
</linearGradient>
</defs>
</svg>
